<svg width="432" height="346" viewBox="0 0 432 346" fill="none" xmlns="http://www.w3.org/2000/svg">
<g clip-path="url(#clip0_1035_40824)">
<path fill-rule="evenodd" clip-rule="evenodd" d="M248.569 345.844C300.167 345.844 345.447 307.487 320.018 255.388C294.588 203.29 389.075 204.973 416.83 168.967C450.678 125.054 440.877 -61.3445 223.581 52.2933C188.773 70.4968 99.3778 33.5662 69.7248 51.8905C34.8206 73.4598 -14.2876 117.628 34.8206 162.87C59.0104 185.156 -27.7157 243 10.2686 294.813C47.3318 345.37 73.3127 297.174 129.74 307.487C186.168 317.798 210.247 345.844 248.569 345.844Z" fill="#E9F5FE"/>
<g clip-path="url(#clip1_1035_40824)">
<path d="M243.55 156.8C237.85 169.2 236.65 183.3 237.15 196.9C237.65 212.6 240.25 228.6 247.85 242.5C255.45 256.3 268.55 267.7 284.15 270.2C299.15 272.6 314.75 266.5 325.85 256.1C336.95 245.7 343.85 231.4 347.65 216.7C353.35 194.7 352.05 169.9 339.35 151.1C316.25 117 261.25 118.6 243.55 156.8Z" fill="white"/>
<path d="M342.45 217C339.15 229.9 333.05 242.4 323.35 251.6C313.65 260.7 299.95 266.1 286.75 264C274.25 262 263.45 253.4 256.65 242.6C263.15 249.8 271.65 255.1 281.15 256.6C294.35 258.7 308.05 253.4 317.75 244.2C327.45 235.1 333.55 222.6 336.85 209.7C341.65 191.1 340.75 170.2 330.75 153.9C332.35 155.6 333.85 157.5 335.25 159.6C346.35 175.9 347.45 197.7 342.45 217Z" fill="#E6E6E6"/>
<path d="M290.75 273C288.35 273 286.05 272.8 283.65 272.4C268.45 269.9 254.25 259.1 245.75 243.5C238.95 231.2 235.35 215.9 234.75 196.9C234.15 179.8 236.25 166.7 241.35 155.7C249.65 137.8 266.75 126.2 287.25 124.5C308.85 122.8 329.45 132.4 341.15 149.6C353.15 167.3 356.35 191.9 349.85 217.1C345.55 233.9 337.75 247.9 327.35 257.6C316.95 267.5 303.65 273 290.75 273ZM292.35 129.1C290.85 129.1 289.25 129.2 287.75 129.3C268.95 130.8 253.25 141.5 245.65 157.8C240.85 168.1 238.95 180.5 239.45 196.9C240.05 215.2 243.45 229.7 249.85 241.4C257.75 255.8 270.65 265.7 284.45 267.9C297.95 270.1 312.85 265.1 324.25 254.4C333.95 245.3 341.25 232 345.35 216.1C351.55 192.2 348.55 169 337.35 152.4C327.45 137.7 310.55 129.1 292.35 129.1Z" fill="#333333"/>
<path d="M104.75 151.9C96.7499 165.4 93.2499 181.2 91.7499 196.9C89.7499 217.6 92.2499 241 107.75 254.9C125.25 270.5 154.55 267.2 171.95 251.4C189.35 235.6 196.05 210.7 194.85 187.2C194.05 171.3 189.75 155.2 179.65 142.9C156.75 115.1 121.85 123.2 104.75 151.9Z" fill="white"/>
<path d="M173.05 246.8C172.75 247.1 172.35 247.4 172.05 247.8C155.75 262.5 128.25 265.7 111.85 251C97.2499 238 94.9499 216.1 96.8499 196.6C98.2499 181.9 101.55 167.1 109.05 154.4C113.45 147 119.15 141.1 125.45 136.9C121.85 140.3 118.65 144.4 115.85 149C108.35 161.7 105.05 176.5 103.65 191.2C101.85 210.7 104.05 232.6 118.65 245.6C133.25 258.6 156.55 257.6 173.05 246.8Z" fill="#E6E6E6"/>
<path d="M136.45 267.5C125.25 267.5 114.35 263.9 106.25 256.6C89.1499 241.3 87.6499 215.6 89.4499 196.6C91.2499 177.8 95.5499 162.7 102.75 150.6C112.15 134.8 127.15 124.6 142.95 123.4C157.35 122.3 171.05 128.7 181.55 141.3C190.85 152.7 196.35 168.5 197.25 187C198.65 214.1 190.05 238.1 173.55 253C163.05 262.7 149.45 267.5 136.45 267.5ZM106.75 153.1C99.9499 164.6 95.7499 179 94.0499 197.1C92.3499 215 93.6499 239.2 109.25 253.1C126.55 268.5 154.75 263.8 170.35 249.7C185.75 235.8 193.85 213.1 192.45 187.4C191.85 175.2 188.75 157.8 177.75 144.4C168.45 133 156.15 127.2 143.25 128.2C129.05 129.3 115.35 138.6 106.75 153.1Z" fill="#333333"/>
<path d="M153.65 208C156.15 209.5 159.55 209.4 162.05 207.8C168.25 204 163.45 195.5 157.35 195.4C150.45 195.3 147.65 204.4 153.65 208Z" fill="#333333"/>
<path d="M262.85 206.7C264.75 207.9 267.35 207.8 269.35 206.6C274.15 203.7 270.45 197.1 265.65 197C260.45 196.9 258.25 203.9 262.85 206.7Z" fill="#333333"/>
<path d="M188.75 -1C190.35 4.6 191.65 10.3 192.65 16C194.45 25.7 188.95 35.3 179.65 38.7C166.45 43.6 153.45 49.1 139.85 53.2C126.45 57.2 112.75 61.4 101.15 69.2C89.5499 77 80.2499 89.3 79.2499 103.3C69.2499 87.4 75.1499 66 88.4499 52.7C101.75 39.4 120.05 32.7 137.65 26.3C155.35 19.9 175.95 12.7 188.75 -1Z" fill="#333333"/>
<path d="M243.25 -1C241.05 6.8 239.35 14.7 238.25 22.7C237.35 28.8 241.05 34.7 246.85 36.7C262.05 42 276.65 48.5 292.05 53.2C305.45 57.2 319.15 61.4 330.75 69.2C342.35 77 351.85 89.3 352.75 103.3C362.75 87.4 356.85 66 343.65 52.7C330.35 39.4 312.05 32.7 294.45 26.3C276.75 19.9 256.15 12.7 243.25 -1Z" fill="#333333"/>
<path d="M265.95 321.9H157.65C156.35 321.9 155.35 320.9 155.35 319.6C155.35 318.3 156.35 317.3 157.65 317.3H265.95C267.25 317.3 268.25 318.3 268.25 319.6C268.25 320.9 267.25 321.9 265.95 321.9Z" fill="#333333"/>
</g>
</g>
<defs>
<clipPath id="clip0_1035_40824">
<rect width="431" height="346" fill="white" transform="translate(0.5)"/>
</clipPath>
<clipPath id="clip1_1035_40824">
<rect width="283.5" height="322.9" fill="white" transform="translate(74.25 -1)"/>
</clipPath>
</defs>
</svg>
