<svg width="17" height="16" viewBox="0 0 17 16" fill="none" xmlns="http://www.w3.org/2000/svg">
<path fill-rule="evenodd" clip-rule="evenodd" d="M1.9781 1L0.878906 2.08126L15.0236 16L16.1228 14.9184L1.9781 1Z" fill="#98A2B3"/>
<path d="M3.20032 4.36632L4.23492 5.38437C3.10236 6.33326 2.20051 7.5144 1.61773 8.54781L1.61595 8.5513C3.23901 11.2216 5.81431 13.7453 9.06468 13.3625C9.94204 13.2591 10.7605 12.964 11.5083 12.5418L12.5557 13.572C11.098 14.4926 9.42705 14.9802 7.6166 14.7392C4.35204 14.3047 1.68268 11.67 0 8.57575C0.790054 7.01149 1.87079 5.51498 3.20032 4.36632ZM5.55345 2.85759C6.4663 2.45736 7.45405 2.22197 8.50887 2.2052C8.56744 2.20485 9.26273 2.23733 9.5779 2.28832C9.77559 2.32045 9.97257 2.36062 10.1667 2.41056C13.2634 3.20439 15.5576 5.78041 17 8.43431C16.3949 9.63675 15.6023 10.8102 14.6572 11.8157L13.6538 10.8284C14.3519 10.088 14.934 9.26376 15.3823 8.46434C15.3823 8.46434 14.9315 7.75119 14.5897 7.30346C14.37 7.01568 14.139 6.73629 13.8962 6.46702C13.7046 6.25468 12.9603 5.53349 12.7832 5.38332C11.5949 4.37785 10.1997 3.58891 8.52626 3.60218C7.87818 3.6123 7.25494 3.73803 6.66328 3.94967L5.55345 2.85759Z" fill="#98A2B3"/>
<path fill-rule="evenodd" clip-rule="evenodd" d="M6.01632 7.13802L6.81499 7.9236L9.88921 10.9486C9.47821 11.1756 9.00404 11.3048 8.4997 11.3048C6.92917 11.3048 5.6543 10.0504 5.6543 8.50496C5.6543 8.00869 5.78597 7.54245 6.01632 7.13802ZM8.44717 5.70578C8.46456 5.70543 8.48231 5.70508 8.4997 5.70508C10.0702 5.70508 11.3451 6.95991 11.3451 8.50496C11.3451 8.52242 11.3451 8.53954 11.3447 8.55665L8.44717 5.70578Z" fill="#98A2B3"/>
</svg>
